REM DIRINDEX 1\2,1\3,1\4
REM DIRNAME cjc105,folder01,folder02,folder03
TITLE ""
FILE "DISC2Track11.mp3" MP3
  TRACK 01 AUDIO
    TITLE "0:"
    INDEX 01 00:00:00
  TRACK 02 AUDIO
    TITLE "4:cjc105_2313"
    INDEX 01 00:00:17
  TRACK 03 AUDIO
    TITLE "0:"
    INDEX 01 00:02:57
  TRACK 04 AUDIO
    TITLE "2:cjc105_2314"
    INDEX 01 00:03:31
  TRACK 05 AUDIO
    TITLE "3:cjc105_2315"
    INDEX 01 00:04:35
  TRACK 06 AUDIO
    TITLE "0:"
    INDEX 01 00:05:36
  TRACK 07 AUDIO
    TITLE "2:cjc105_2316"
    INDEX 01 00:05:59
  TRACK 08 AUDIO
    TITLE "3:cjc105_2317"
    INDEX 01 00:07:07
  TRACK 09 AUDIO
    TITLE "0:"
    INDEX 01 00:08:19
  TRACK 10 AUDIO
    TITLE "2:cjc105_2318"
    INDEX 01 00:08:32
  TRACK 11 AUDIO
    TITLE "3:cjc105_2319"
    INDEX 01 00:09:63
  TRACK 12 AUDIO
    TITLE "0:"
    INDEX 01 00:11:31
  TRACK 13 AUDIO
    TITLE "2:cjc105_2320"
    INDEX 01 00:11:48
  TRACK 14 AUDIO
    TITLE "3:cjc105_2321"
    INDEX 01 00:12:71
  TRACK 15 AUDIO
    TITLE "0:"
    INDEX 01 00:14:31
  TRACK 16 AUDIO
    TITLE "2:cjc105_2322"
    INDEX 01 00:14:43
  TRACK 17 AUDIO
    TITLE "3:cjc105_2323"
    INDEX 01 00:16:30
  TRACK 18 AUDIO
    TITLE "0:"
    INDEX 01 00:17:57
  TRACK 19 AUDIO
    TITLE "2:cjc105_2324"
    INDEX 01 00:17:72
  TRACK 20 AUDIO
    TITLE "3:cjc105_2325"
    INDEX 01 00:19:46
  TRACK 21 AUDIO
    TITLE "0:"
    INDEX 01 00:21:04
  TRACK 22 AUDIO
    TITLE "2:cjc105_2326"
    INDEX 01 00:21:23
  TRACK 23 AUDIO
    TITLE "3:cjc105_2327"
    INDEX 01 00:23:40
  TRACK 24 AUDIO
    TITLE "0:"
    INDEX 01 00:24:63
  TRACK 25 AUDIO
    TITLE "2:cjc105_2328"
    INDEX 01 00:25:11
  TRACK 26 AUDIO
    TITLE "3:cjc105_2329"
    INDEX 01 00:26:05
  TRACK 27 AUDIO
    TITLE "0:"
    INDEX 01 00:27:39
  TRACK 28 AUDIO
    TITLE "2:cjc105_2330"
    INDEX 01 00:27:49
  TRACK 29 AUDIO
    TITLE "3:cjc105_2331"
    INDEX 01 00:29:11
  TRACK 30 AUDIO
    TITLE "0:"
    INDEX 01 00:30:55
  TRACK 31 AUDIO
    TITLE "2:cjc105_2332"
    INDEX 01 00:30:69
  TRACK 32 AUDIO
    TITLE "3:cjc105_2333"
    INDEX 01 00:32:52
  TRACK 33 AUDIO
    TITLE "0:"
    INDEX 01 00:34:22
  TRACK 34 AUDIO
    TITLE "2:cjc105_2334"
    INDEX 01 00:34:36
  TRACK 35 AUDIO
    TITLE "3:cjc105_2335"
    INDEX 01 00:35:45
  TRACK 36 AUDIO
    TITLE "0:"
    INDEX 01 00:36:70
  TRACK 37 AUDIO
    TITLE "2:cjc105_2336"
    INDEX 01 00:37:07
  TRACK 38 AUDIO
    TITLE "3:cjc105_2337"
    INDEX 01 00:38:26
  TRACK 39 AUDIO
    TITLE "0:"
    INDEX 01 00:39:27
  TRACK 40 AUDIO
    TITLE "2:cjc105_2338"
    INDEX 01 00:39:39
  TRACK 41 AUDIO
    TITLE "3:cjc105_2339"
    INDEX 01 00:40:28
  TRACK 42 AUDIO
    TITLE "0:"
    INDEX 01 00:41:61
  TRACK 43 AUDIO
    TITLE "2:cjc105_2340"
    INDEX 01 00:42:00
  TRACK 44 AUDIO
    TITLE "3:cjc105_2341"
    INDEX 01 00:43:21
  TRACK 45 AUDIO
    TITLE "0:"
    INDEX 01 00:44:60
  TRACK 46 AUDIO
    TITLE "2:cjc105_2342"
    INDEX 01 00:44:71
  TRACK 47 AUDIO
    TITLE "3:cjc105_2343"
    INDEX 01 00:45:69
  TRACK 48 AUDIO
    TITLE "0:"
    INDEX 01 00:47:30
  TRACK 49 AUDIO
    TITLE "2:cjc105_2344"
    INDEX 01 00:47:42
  TRACK 50 AUDIO
    TITLE "3:cjc105_2345"
    INDEX 01 00:49:25
  TRACK 51 AUDIO
    TITLE "0:"
    INDEX 01 00:50:70
  TRACK 52 AUDIO
    TITLE "2:cjc105_2346"
    INDEX 01 00:51:05
  TRACK 53 AUDIO
    TITLE "3:cjc105_2347"
    INDEX 01 00:52:02
  TRACK 54 AUDIO
    TITLE "0:"
    INDEX 01 00:53:13
  TRACK 55 AUDIO
    TITLE "2:cjc105_2348"
    INDEX 01 00:53:25
  TRACK 56 AUDIO
    TITLE "3:cjc105_2349"
    INDEX 01 00:55:08
  TRACK 57 AUDIO
    TITLE "0:"
    INDEX 01 00:56:72
  TRACK 58 AUDIO
    TITLE "2:cjc105_2350"
    INDEX 01 00:57:07
  TRACK 59 AUDIO
    TITLE "3:cjc105_2351"
    INDEX 01 00:58:50
  TRACK 60 AUDIO
    TITLE "0:"
    INDEX 01 01:00:19
  TRACK 61 AUDIO
    TITLE "2:cjc105_2352"
    INDEX 01 01:00:29
  TRACK 62 AUDIO
    TITLE "3:cjc105_2353"
    INDEX 01 01:01:50
  TRACK 63 AUDIO
    TITLE "0:"
    INDEX 01 01:03:29
  TRACK 64 AUDIO
    TITLE "2:cjc105_2354"
    INDEX 01 01:03:41
  TRACK 65 AUDIO
    TITLE "3:cjc105_2355"
    INDEX 01 01:04:62
  TRACK 66 AUDIO
    TITLE "0:"
    INDEX 01 01:06:22
  TRACK 67 AUDIO
    TITLE "2:cjc105_2356"
    INDEX 01 01:06:30
  TRACK 68 AUDIO
    TITLE "3:cjc105_2357"
    INDEX 01 01:07:45
  TRACK 69 AUDIO
    TITLE "0:"
    INDEX 01 01:09:22
  TRACK 70 AUDIO
    TITLE "2:cjc105_2358"
    INDEX 01 01:09:36
  TRACK 71 AUDIO
    TITLE "3:cjc105_2359"
    INDEX 01 01:10:61
  TRACK 72 AUDIO
    TITLE "0:"
    INDEX 01 01:12:01
  TRACK 73 AUDIO
    TITLE "2:cjc105_2360"
    INDEX 01 01:12:15
  TRACK 74 AUDIO
    TITLE "3:cjc105_2361"
    INDEX 01 01:13:47
  TRACK 75 AUDIO
    TITLE "0:"
    INDEX 01 01:14:65
  TRACK 76 AUDIO
    TITLE "2:cjc105_2362"
    INDEX 01 01:14:74
  TRACK 77 AUDIO
    TITLE "3:cjc105_2363"
    INDEX 01 01:15:64
  TRACK 78 AUDIO
    TITLE "0:"
    INDEX 01 01:17:16
  TRACK 79 AUDIO
    TITLE "2:cjc105_2364"
    INDEX 01 01:17:30
  TRACK 80 AUDIO
    TITLE "3:cjc105_2365"
    INDEX 01 01:18:62
  TRACK 81 AUDIO
    TITLE "0:"
    INDEX 01 01:20:00
  TRACK 82 AUDIO
    TITLE "2:cjc105_2366"
    INDEX 01 01:20:12
  TRACK 83 AUDIO
    TITLE "3:cjc105_2367"
    INDEX 01 01:21:33
  TRACK 84 AUDIO
    TITLE "0:"
    INDEX 01 01:22:48
  TRACK 85 AUDIO
    TITLE "2:cjc105_2368"
    INDEX 01 01:22:62
  TRACK 86 AUDIO
    TITLE "3:cjc105_2369"
    INDEX 01 01:24:32
  TRACK 87 AUDIO
    TITLE "0:"
    INDEX 01 01:26:01
  TRACK 88 AUDIO
    TITLE "2:cjc105_2370"
    INDEX 01 01:26:13
  TRACK 89 AUDIO
    TITLE "3:cjc105_2371"
    INDEX 01 01:27:24
  TRACK 90 AUDIO
    TITLE "0:"
    INDEX 01 01:28:35
  TRACK 91 AUDIO
    TITLE "2:cjc105_2372"
    INDEX 01 01:28:49
  TRACK 92 AUDIO
    TITLE "3:cjc105_2373"
    INDEX 01 01:29:52
  TRACK 93 AUDIO
    TITLE "0:"
    INDEX 01 01:30:60
  TRACK 94 AUDIO
    TITLE "2:cjc105_2374"
    INDEX 01 01:30:73
  TRACK 95 AUDIO
    TITLE "3:cjc105_2375"
    INDEX 01 01:32:10
  TRACK 96 AUDIO
    TITLE "0:"
    INDEX 01 01:33:21
  TRACK 97 AUDIO
    TITLE "2:cjc105_2376"
    INDEX 01 01:33:36
  TRACK 98 AUDIO
    TITLE "3:cjc105_2377"
    INDEX 01 01:34:40
  TRACK 99 AUDIO
    TITLE "0:"
    INDEX 01 01:37:19
